<svg xmlns="http://www.w3.org/2000/svg" version="1.1" xmlns:xlink="http://www.w3.org/1999/xlink" xmlns:svgjs="http://svgjs.com/svgjs" width="512" height="512" x="0" y="0" viewBox="0 0 64 64" style="enable-background:new 0 0 512 512" xml:space="preserve"><g><g data-name="22-CT-scan"><path d="M61 50a1 1 0 0 0 1-1v-5a1 1 0 0 0-1-1h-4.08A7 7 0 0 0 50 37H34.913C34.236 27.4 28.7 20 22 20h-7C7.83 20 2 28.52 2 39c0 7.447 2.951 13.886 7.227 17H2v2h60v-2H49v-6Zm-1-2H23v-3h37Zm-38 8c-3.2 0-6.07-2.131-8.081-5.505l3.775-3.775C18.777 48.752 20.3 50 22 50h8.37c-2.09 3.79-5.14 6-8.37 6Zm5-13a2.146 2.146 0 0 1-.49-.05 2.992 2.992 0 0 1 .32-5.94c.03 0 .14-.01.17-.01a3 3 0 0 1 0 6Zm-5-3a4.972 4.972 0 0 0 1.014 3H22a1 1 0 0 0-1 1v3.67c-1.56-1.01-3-4.29-3-8.67 0-5.3 2.11-9 4-9 1.48 0 2.93 2.13 3.61 5.2.03-.01.06-.01.09-.02A4.989 4.989 0 0 0 22 40Zm32.9 3H32v-4h18a5.008 5.008 0 0 1 4.9 4Zm-21.98-6H30.979a4.935 4.935 0 0 0-3.359-1.95C26.76 30.74 24.59 28 22 28c-3.36 0-6 4.83-6 11a18.523 18.523 0 0 0 .86 5.726l-3.912 3.912A23.786 23.786 0 0 1 11 39c0-9.37 4.93-17 11-17 5.61 0 10.28 6.51 10.92 15ZM15 22h1.227C11.951 25.114 9 31.553 9 39a25.641 25.641 0 0 0 1.966 10H6.124A23.553 23.553 0 0 1 4 39c0-9.37 4.93-17 11-17Zm0 34c-3.039 0-5.792-1.914-7.784-5h4.715a15.434 15.434 0 0 0 4.3 5Zm17.608-6H35v6h-7.177a15.852 15.852 0 0 0 4.785-6ZM47 56H37v-6h10Z" fill="#004b6f" data-original="#000000"></path><path d="M20 24h4v2h-4zM12 38h3v2h-3zM39 52h6v2h-6zM62 17h-4V9a3 3 0 0 0-3-3H36a3 3 0 0 0-3 3v5h-4v2h4v7a3 3 0 0 0 3 3h19a3 3 0 0 0 3-3v-4h4ZM35 9a1 1 0 0 1 1-1h19a1 1 0 0 1 1 1v8h-.382L53.9 13.553a1 1 0 0 0-1.844.131l-1.356 4.06-.866-1.3A1 1 0 0 0 49 16h-1.323l-1.748-4.372a1 1 0 0 0-1.909.176l-1.17 5.846-1.885-6.913A1 1 0 0 0 40 10h-.011a1 1 0 0 0-.959.757l-1.344 5.378-.786-1.582A1 1 0 0 0 36 14h-1Zm21 14a1 1 0 0 1-1 1H36a1 1 0 0 1-1-1v-7h.382l1.718 3.447a1 1 0 0 0 1.865-.2l1.072-4.288 1.993 7.308A1 1 0 0 0 43 23h.034a1 1 0 0 0 .946-.8l1.341-6.7.75 1.877A1 1 0 0 0 47 18h1.465l1.7 2.555a1 1 0 0 0 1.781-.239l1.236-3.71.92 1.841A1 1 0 0 0 55 19h1Z" fill="#004b6f" data-original="#000000"></path></g></g></svg>