<svg xmlns="http://www.w3.org/2000/svg" version="1.1" xmlns:xlink="http://www.w3.org/1999/xlink" xmlns:svgjs="http://svgjs.com/svgjs" width="512" height="512" x="0" y="0" viewBox="0 0 480 480" style="enable-background:new 0 0 512 512" xml:space="preserve"><g><path d="m181.024 220.797-24.936 9.984c-8.521 3.384-18.171-.781-21.555-9.301a16.6 16.6 0 0 1 .547-13.483l5.496-10.992a16 16 0 0 0-3-18.472l-38.264-38.264 10.344-10.344a8 8 0 0 0 0-11.312L83.312 92.27l2.344-2.344a8 8 0 0 0 .16-11.152l-72-76.264A7.999 7.999 0 0 0 0 7.997v104a7.998 7.998 0 0 0 2.84 6.112l24 20.288a8 8 0 0 0 10.816-.456L40 135.573l26.344 26.344a8 8 0 0 0 11.312 0L88 151.573l38.264 38.264-5.464 10.96c-8.042 16.094-1.514 35.66 14.58 43.701a32.578 32.578 0 0 0 26.676 1.099l24.952-9.976-5.984-14.824zM34.344 118.629l-2.8 2.8L16 108.285v-80.16l52.848 56-2.504 2.504-32 32zM72 144.949l-20.688-20.688L72 103.573l20.688 20.712L72 144.949zM475.064 232.605a8 8 0 0 0-8.72 1.736l-112 112a8 8 0 0 0 0 11.312l6.344 6.344-31.392 31.392A77.28 77.28 0 0 0 288 383.997c-35.288 0-64 21.528-64 48s28.712 48 64 48 64-21.528 64-48a39.722 39.722 0 0 0-10.464-26.224L372 375.309l6.344 6.344a8 8 0 0 0 11.312 0l88-88a8 8 0 0 0 2.344-5.656v-48a8 8 0 0 0-4.936-7.392zM288 463.997c-26.016 0-48-14.656-48-32s21.984-32 48-32 48 14.656 48 32-21.984 32-48 32zm176-179.312-80 80-12.688-12.688L464 259.309v25.376z" fill="#004b6f" data-original="#000000"></path><path d="M275.832 270.349c-3.304-19.789-22.025-33.154-41.815-29.849a36.327 36.327 0 0 0-29.849 29.849L180 415.357c-1.811 10.847-12.072 18.172-22.919 16.362a19.911 19.911 0 0 1-16.449-16.938l-20.704-151.864a8.004 8.004 0 0 0-1.144-3.2l-4.448-7.12a225.333 225.333 0 0 1-28.88-70.4l-15.624 3.488a241.394 241.394 0 0 0 30.968 75.432l3.536 5.664 20.48 150.16c2.675 19.648 20.771 33.408 40.419 30.733 15.594-2.123 27.988-14.153 30.573-29.677l24.168-145.008c1.605-9.808 10.086-17.005 20.024-16.992 9.951-.028 18.449 7.172 20.056 16.992l16.056 96.328 15.776-2.64-16.056-96.328zM315.07 31.999a100.93 100.93 0 0 0-39.75 8.158 90.094 90.094 0 0 1-70.64 0c-39.638-16.988-85.691-6.914-114.616 25.072l11.872 10.768a85.088 85.088 0 0 1 62.992-28 84.47 84.47 0 0 1 33.448 6.864 106.073 106.073 0 0 0 83.248 0c43.114-18.473 93.039 1.502 111.512 44.616A84.925 84.925 0 0 1 400 132.925a225.598 225.598 0 0 1-34.336 119.712l-4.448 7.12a8.004 8.004 0 0 0-1.144 3.2l-6.544 48 15.848 2.16 6.32-46.296 3.536-5.664A241.596 241.596 0 0 0 416 132.925c-.001-55.741-45.189-100.927-100.93-100.926z" fill="#004b6f" data-original="#000000"></path></g></svg>