<svg xmlns="http://www.w3.org/2000/svg" version="1.1" xmlns:xlink="http://www.w3.org/1999/xlink" xmlns:svgjs="http://svgjs.com/svgjs" width="512" height="512" x="0" y="0" viewBox="0 0 512.001 512.001" style="enable-background:new 0 0 512 512" xml:space="preserve" class=""><g><path d="M154.226 119.579c1.465 1.464 3.385 2.196 5.304 2.196s3.839-.732 5.304-2.196a7.5 7.5 0 0 0 0-10.607L58.142 2.28a7.5 7.5 0 0 0-10.607 10.607z" fill="#004b6f" data-original="#000000"></path><path d="M166.823 188.085c8.677 8.678 12.259 21.125 9.349 32.483-3.091 12.055.552 24.904 9.508 33.532a34.517 34.517 0 0 0 24.002 9.691 34.343 34.343 0 0 0 21.906-7.868c8.769-7.23 13.342-17.927 12.565-29.069 11.134.772 21.815-3.786 29.045-12.536 11.155-13.497 10.402-33.226-1.75-45.889-8.649-9.01-21.541-12.668-33.646-9.54-11.306 2.918-23.722-.671-32.417-9.366l-19.397-19.397a7.5 7.5 0 0 0-10.607 10.607l19.397 19.397c12.434 12.433 30.36 17.522 46.774 13.282 6.968-1.799 14.099.221 19.073 5.403 6.765 7.049 7.208 18.446 1.01 25.946-4.469 5.407-11.256 7.996-18.149 6.937a12.716 12.716 0 0 0-14.488 14.485c1.066 6.905-1.533 13.696-6.953 18.166-7.514 6.196-18.916 5.734-25.957-1.052-5.151-4.963-7.165-12.067-5.386-19.006 4.22-16.468-.865-34.406-13.271-46.814L13.006 13.056A7.5 7.5 0 0 0 2.399 23.663zM356.537 226.444c-2.396-11.928-10.609-21.763-21.969-26.311-11.18-4.476-23.688-3.065-33.472 3.788l-.614.438c-6.024 4.346-10.459 10.331-12.826 17.309-15.804 46.582-46.671 69.521-69.781 80.562-11.572 5.527-17.751 17.356-15.741 30.135 1.979 12.582 11.34 21.798 23.847 23.479 3.03.406 17.674.437 20.267.258 3.202-.22 6.224.84 8.515 2.98a10.548 10.548 0 0 1 3.379 7.786v137.633c0 4.143 3.357 7.5 7.5 7.5s7.5-3.357 7.5-7.5V366.868c0-7.187-2.891-13.845-8.14-18.747-5.282-4.935-12.482-7.487-19.773-6.984-2.196.151-15.199.067-17.251-.16-7.007-.94-10.29-6.27-11.024-10.942-.76-4.829.782-11.113 7.389-14.269 25.715-12.285 60.037-37.746 77.521-89.279 1.34-3.95 3.967-7.488 7.393-9.96l.464-.329c5.689-3.986 12.716-4.763 19.276-2.138 6.642 2.659 11.44 8.394 12.836 15.34 5.241 26.089-6.272 54.686-29.332 72.854-6.288 4.954-9.895 12.358-9.895 20.313v181.935c0 4.143 3.357 7.5 7.5 7.5s7.5-3.357 7.5-7.5V322.566c0-3.33 1.522-6.439 4.178-8.531 27.454-21.633 41.095-56.014 34.753-87.591zM196.853 387.476a7.497 7.497 0 0 0-8.998-5.615 7.5 7.5 0 0 0-5.615 8.998c7.701 33.27 12.014 71.553 12.818 113.785a7.5 7.5 0 0 0 7.496 7.357l.146-.001a7.5 7.5 0 0 0 7.356-7.642c-.825-43.273-5.267-82.598-13.203-116.882zM189.037 358.776c-19.066-60.142-50.889-102.074-94.584-124.633-32.779-16.924-56.1-42.147-69.315-74.97-9.88-24.539-10.133-44.449-10.137-44.906a7.5 7.5 0 0 0-7.5-7.492 7.499 7.499 0 0 0-7.5 7.5c0 .91.125 22.604 10.97 49.869 9.998 25.134 31.402 59.991 76.602 83.327 40.022 20.662 69.349 59.636 87.166 115.838a7.504 7.504 0 0 0 7.147 5.235 7.5 7.5 0 0 0 7.151-9.768zM469.801 367.02h-15.035v-15.035c0-6.509-5.295-11.804-11.804-11.804h-24.467c-6.508 0-11.803 5.295-11.803 11.804v15.035h-15.036c-6.508 0-11.803 5.295-11.803 11.804v24.466c0 6.509 5.295 11.804 11.803 11.804h15.036v15.035c0 6.509 5.295 11.804 11.803 11.804h24.467c6.509 0 11.804-5.295 11.804-11.804v-15.035h15.035c6.509 0 11.804-5.295 11.804-11.804v-24.466c0-6.509-5.295-11.804-11.804-11.804zm-3.196 33.074h-15.036c-6.508 0-11.803 5.295-11.803 11.803v15.036h-18.073v-15.036c0-6.508-5.295-11.803-11.804-11.803h-15.035V382.02h15.035c6.509 0 11.804-5.295 11.804-11.803v-15.036h18.073v15.036c0 6.508 5.295 11.803 11.803 11.803h15.036z" fill="#004b6f" data-original="#000000"></path><path d="M430.729 309.786c-11.108 0-21.702 2.24-31.355 6.292v-49.137c0-44.375-11.686-88.167-33.793-126.643-22.107-38.475-54.057-70.624-92.394-92.971L193.745 1.021a7.501 7.501 0 0 0-7.555 12.959l79.442 46.307c36.075 21.028 66.14 51.28 86.942 87.485s31.799 77.413 31.799 119.169v57.394c-21.089 14.697-34.916 39.125-34.916 66.722s13.827 52.026 34.916 66.722V504.5c0 4.143 3.357 7.5 7.5 7.5s7.5-3.357 7.5-7.5v-38.464c9.653 4.052 20.248 6.292 31.355 6.292 13.759 0 27.369-3.516 39.359-10.166a7.5 7.5 0 0 0 2.921-10.196c-2.01-3.622-6.575-4.934-10.196-2.921-9.77 5.419-20.864 8.283-32.084 8.283-36.542 0-66.271-29.729-66.271-66.271s29.729-66.271 66.271-66.271S497 354.516 497 391.058c0 14.729-4.742 28.681-13.715 40.348a7.501 7.501 0 0 0 11.891 9.145C506.183 426.237 512 409.123 512 391.058c0-44.814-36.458-81.272-81.271-81.272z" fill="#004b6f" data-original="#000000"></path></g></svg>