<svg xmlns="http://www.w3.org/2000/svg" version="1.1" xmlns:xlink="http://www.w3.org/1999/xlink" xmlns:svgjs="http://svgjs.com/svgjs" width="512" height="512" x="0" y="0" viewBox="0 0 512 512" style="enable-background:new 0 0 512 512" xml:space="preserve" class=""><g><path d="M402.704 266.761a91.128 91.128 0 0 0-.369-.992h0a109.673 109.673 0 0 0-40.393-51.538l-26.934-18.542M230.059 162.538l-1.488-5.486a36.876 36.876 0 0 1 1.073-22.625l2.481-6.6c14.286-38.006.93-80.859-32.42-104.018h0a91.299 91.299 0 0 0-91.111-7.542l-1.029.487c-47.553 22.49-71.368 74.784-59.798 123.938M233.432 214.176l-6.906-3.018a159.197 159.197 0 0 0-83.476-12.096l-23.938 2.989M379.64 220.59l18.78-4.1c24.75-5.39 42.17-25.74 45.21-49.26.32-2.43.48-4.9.48-7.39 0-5.26-.72-10.6-2.23-15.92-3.11-11.24-13.32-18.72-24.59-18.72-1.62 0-3.27.16-4.92.48a25.424 25.424 0 0 0-14.4 8.34c-3.64 4.21-5.91 9.6-6.2 15.46-.32 6.47-7.3 10.38-12.99 7.28l-.42-.23a113.026 113.026 0 0 0-43.43-13.27M256.45 165.38c13.81-8.73 27.72-16.2 43.55-19.91" style="stroke-width:15;stroke-linecap:round;stroke-linejoin:round;stroke-miterlimit:10;" fill="none" stroke="#004b6f" stroke-width="15" stroke-linecap="round" stroke-linejoin="round" stroke-miterlimit="10" data-original="#000000" class=""></path><path d="M264.376 277.033a82.917 82.917 0 0 0 15.538-25.194h0c10.153-25.919 4.497-55.367-14.535-75.681l-5.774-6.163c-9.712-10.366-25.842-11.305-36.691-2.136h0a26.678 26.678 0 0 0-8.943 25.595l2.251 11.132M133.664 108.028h0c-10.247-4.894-22.379 1.055-24.782 12.154l-.359 1.656c-2.759 12.743 3.601 25.711 15.366 31.33h0M177.601 139.924h5.58c4.747 0 9.415 1.217 13.558 3.535h0M443.35 279.85V171.4c0-1.32.08-2.63.25-3.91l.03-.26c.93-6.81 4.09-12.92 8.71-17.55 5.56-5.55 13.24-8.99 21.72-8.99 6.32 0 11.45 5.12 11.45 11.44v147.33c0 7.75-2.66 15.27-7.53 21.3l-24.2 29.99M386.3 504.5l-5.06-31.8a61.026 61.026 0 0 1 12.78-47.91l37.77-46.8" style="stroke-width:15;stroke-linecap:round;stroke-linejoin:round;stroke-miterlimit:10;" fill="none" stroke="#004b6f" stroke-width="15" stroke-linecap="round" stroke-linejoin="round" stroke-miterlimit="10" data-original="#000000" class=""></path><path d="m341.044 328.364 64.714-64.168c8.586-8.514 22.426-8.53 31.032-.035h0c8.453 8.344 8.782 21.883.745 30.628l-62.119 67.596M295.974 504.5v-47.408M26.49 220.59v-68.46c0-6.32 5.13-11.44 11.45-11.44 8.48 0 16.16 3.44 21.72 8.99 5.55 5.56 8.99 13.24 8.99 21.72v108.45M26.49 255.59v43.87c0 7.75 2.66 15.27 7.53 21.3l83.96 104.03a61.026 61.026 0 0 1 12.78 47.91l-5.06 31.8" style="stroke-width:15;stroke-linecap:round;stroke-linejoin:round;stroke-miterlimit:10;" fill="none" stroke="#004b6f" stroke-width="15" stroke-linecap="round" stroke-linejoin="round" stroke-miterlimit="10" data-original="#000000" class=""></path><path d="m171.231 328.638-64.99-64.441c-8.586-8.514-22.426-8.53-31.032-.035h0c-8.453 8.344-8.782 21.883-.745 30.628l62.119 67.596M216.026 504.5v-47.408" style="stroke-width:15;stroke-linecap:round;stroke-linejoin:round;stroke-miterlimit:10;" fill="none" stroke="#004b6f" stroke-width="15" stroke-linecap="round" stroke-linejoin="round" stroke-miterlimit="10" data-original="#000000" class=""></path><path d="M188.23 435.19c17.04 17.9 41.1 29.05 67.77 29.05 51.7 0 93.61-41.91 93.61-93.6 0-51.7-41.91-93.61-93.61-93.61s-93.61 41.91-93.61 93.61c0 12.39 2.41 24.22 6.79 35.04" style="stroke-width:15;stroke-linecap:round;stroke-linejoin:round;stroke-miterlimit:10;" fill="none" stroke="#004b6f" stroke-width="15" stroke-linecap="round" stroke-linejoin="round" stroke-miterlimit="10" data-original="#000000" class=""></path><path d="M205.613 353.52h33.27v-33.271h34.234v33.271h33.27v34.233h-33.27v33.271h-34.234v-33.271h-33.27z" style="stroke-width:15;stroke-linecap:round;stroke-linejoin:round;stroke-miterlimit:10;" fill="none" stroke="#004b6f" stroke-width="15" stroke-linecap="round" stroke-linejoin="round" stroke-miterlimit="10" data-original="#000000" class=""></path></g></svg>