<svg xmlns="http://www.w3.org/2000/svg" version="1.1" xmlns:xlink="http://www.w3.org/1999/xlink" xmlns:svgjs="http://svgjs.com/svgjs" width="512" height="512" x="0" y="0" viewBox="0 0 32 32" style="enable-background:new 0 0 512 512" xml:space="preserve" class=""><g><path d="M18 10h-4a2 2 0 0 0-2 2v15a2 2 0 0 0 2 2h4a2 2 0 0 0 2-2V12a2 2 0 0 0-2-2zm-4 17V12h4v15zM28 3h-4a2 2 0 0 0-2 2v22a2 2 0 0 0 2 2h4a2 2 0 0 0 2-2V5a2 2 0 0 0-2-2zm-4 24V5h4v22zM8 17H4a2 2 0 0 0-2 2v8a2 2 0 0 0 2 2h4a2 2 0 0 0 2-2v-8a2 2 0 0 0-2-2zM4 27v-8h4v8z" data-name="Layer 14" fill="#ffffff" data-original="#000000"></path></g></svg>